<svg width="13" height="13" viewBox="0 0 13 13" fill="none" xmlns="http://www.w3.org/2000/svg">
<path d="M6.02708 7.31042L1.53542 11.8021C1.36736 11.9701 1.15347 12.0542 0.89375 12.0542C0.634028 12.0542 0.420139 11.9701 0.252083 11.8021C0.0840274 11.634 0 11.4201 0 11.1604C0 10.9007 0.0840274 10.6868 0.252083 10.5187L4.74375 6.02708L0.252083 1.53542C0.0840274 1.36736 0 1.15347 0 0.89375C0 0.634028 0.0840274 0.420139 0.252083 0.252083C0.420139 0.0840274 0.634028 0 0.89375 0C1.15347 0 1.36736 0.0840274 1.53542 0.252083L6.02708 4.74375L10.5187 0.252083C10.6868 0.0840274 10.9007 0 11.1604 0C11.4201 0 11.634 0.0840274 11.8021 0.252083C11.9701 0.420139 12.0542 0.634028 12.0542 0.89375C12.0542 1.15347 11.9701 1.36736 11.8021 1.53542L7.31042 6.02708L11.8021 10.5187C11.9701 10.6868 12.0542 10.9007 12.0542 11.1604C12.0542 11.4201 11.9701 11.634 11.8021 11.8021C11.634 11.9701 11.4201 12.0542 11.1604 12.0542C10.9007 12.0542 10.6868 11.9701 10.5187 11.8021L6.02708 7.31042Z" fill="#999999"/>
</svg>
