<svg width="19" height="20" viewBox="0 0 19 20" fill="none" xmlns="http://www.w3.org/2000/svg">
<path d="M13.474 3.90789L15.592 6.02489M14.836 2.04289L9.109 7.76989C8.81309 8.06539 8.61128 8.44187 8.529 8.85189L8 11.4999L10.648 10.9699C11.058 10.8879 11.434 10.6869 11.73 10.3909L17.457 4.66389C17.6291 4.49179 17.7656 4.28748 17.8588 4.06263C17.9519 3.83777 17.9998 3.59677 17.9998 3.35339C17.9998 3.11001 17.9519 2.86901 17.8588 2.64415C17.7656 2.41929 17.6291 2.21499 17.457 2.04289C17.2849 1.87079 17.0806 1.73428 16.8557 1.64114C16.6309 1.548 16.3899 1.50006 16.1465 1.50006C15.9031 1.50006 15.6621 1.548 15.4373 1.64114C15.2124 1.73428 15.0081 1.87079 14.836 2.04289V2.04289Z" stroke="#999999" stroke-width="2" stroke-linecap="round" stroke-linejoin="round"/>
<path d="M16 13.4999V16.4999C16 17.0303 15.7893 17.539 15.4142 17.9141C15.0391 18.2892 14.5304 18.4999 14 18.4999H3C2.46957 18.4999 1.96086 18.2892 1.58579 17.9141C1.21071 17.539 1 17.0303 1 16.4999V5.49988C1 4.96944 1.21071 4.46074 1.58579 4.08566C1.96086 3.71059 2.46957 3.49988 3 3.49988H6" stroke="#999999" stroke-width="2" stroke-linecap="round" stroke-linejoin="round"/>
</svg>
